<?xml version="1.0" encoding="utf-8"?>
<svg xmlns="http://www.w3.org/2000/svg" xmlns:xlink="http://www.w3.org/1999/xlink" viewBox="0 0 175 85" fill="hsl(348, 37%, 70%)">

<path d="M55.919,24.936c0.312-1.634-0.155-2.801-1.167-2.644c-1.634,0.309-7.003,5.444-8.325,17.351
	c-4.202,7.313-8.871,12.445-11.595,12.37c-2.256-0.079-2.49-2.723-0.388-7.157c1.944-4.125,5.835-10.036,7.547-13.54
	c1.867-3.889,1.244-7.313,0.156-8.714c-0.7-0.7-1.168-0.545-1.946,0.467c-2.567,3.346-4.824,8.714-9.804,16.652
	c-4.203,6.769-7.082,11.979-10.193,12.059c-1.79,0.076-1.869-2.645-0.312-6.457c1.557-3.735,3.579-7.393,6.38-11.827
	c2.879-4.592,3.269-7.936,1.401-10.503c-0.467-0.7-1.246-0.781-1.868,0.076c-5.214,7.081-9.025,14.707-10.815,19.844
	c-2.023,5.756-1.167,10.809,3.657,11.123c3.734,0.233,7.003-2.88,9.493-6.067c-0.233,3.344,1.634,6.376,4.98,6.456
	c5.214,0.154,10.737-5.834,16.029-14.703C53.975,31.549,55.298,28.048,55.919,24.936z">
	<title>w</title>
</path>

<path d="M151.909,41.197c-0.31-0.701-0.933-0.701-1.321-0.076c-3.347,5.134-9.023,11.357-15.485,11.049
	c-4.13-0.236-5.997-5.136-3.507-12.294c5.453,4.437,10.668,2.413,14.479-2.255c3.268-3.967,3.893-8.717,2.492-10.584
	c-1.246-1.71-2.646-2.876-4.592-4.044c-3.893-2.258-11.834,1.789-16.892,11.827c-1.066,2.117-1.733,4.215-2.065,6.215
	c-1.245,2.982-6.973,10.899-10.475,11.054c-2.49,0.157-2.646-2.874-0.779-7.387c1.635-3.892,4.902-9.181,6.537-12.606
	c1.867-3.891,1.244-7.235,0.077-8.483c-0.622-0.7-1.167-0.467-1.866,0.467c-2.482,3.49-6.631,10.783-8.977,16.37
	c-0.078,0.084-0.16,0.147-0.221,0.283c-1.946,4.204-5.215,8.871-10.428,10.814c2.801-1.865,3.347-5.132,3.502-8.166
	c0.232-5.371-1.246-11.442-0.701-18.598c0.312-0.546,0.546-1.013,0.856-1.479c1.012-1.792,1.4-2.646,0.623-3.425
	c-0.7-0.7-2.491-0.388-4.202,1.167c-1.635,1.482-2.412,2.958-2.802,5.993c-2.257,3.967-5.759,9.026-8.948,13.385
	c-0.078-0.624-0.078-1.246-0.155-1.867c-0.078-1.246-0.7-1.558-1.635-0.779c-1.723,1.419-2.405,4.095-2.167,6.755
	c-4.395,4.385-7.806,5.505-13.215,8.416c3.268-7.544,8.014-16.883,10.348-21.396c2.023-3.967,1.4-7.314,0.312-8.714
	c-0.7-0.624-1.246-0.467-1.946,0.543c-2.723,3.97-6.069,10.975-9.417,16.731c-3.967,6.771-7.858,11.747-10.893,11.513
	c-1.79-0.154-1.945-2.875-0.388-6.688c1.477-3.659,3.19-6.848,5.99-11.364c2.879-4.589,3.346-7.856,1.479-10.345
	c-0.546-0.782-1.323-0.858-1.946,0C58.526,30.228,54.713,37.929,53,42.912c-1.79,5.134-1.634,10.809,3.969,11.275
	c3.113,0.236,6.07-1.785,8.481-4.273c-0.856,1.865-1.634,3.807-2.411,5.597c-7.704,3.034-14.319,7.702-16.653,14.706
	c-1.556,4.592,0,7.314,1.557,9.648c1.477,2.182,2.957,2.182,4.435,1.635c6.459-2.49,11.982-15.016,16.341-25.443
	c6.251-2.561,9.931-4.196,15.24-8.512c0.138,0.358,0.278,0.713,0.454,1.044c2.646,4.823,7.003,5.989,11.516,5.834
	c4.428-0.19,8.686-2.151,11.731-5.674c0.231,3.36,2.163,5.595,6.103,5.595c4.211,0,8.908-3.064,11.328-7.623
	c1.031,4.615,4.564,7.791,10.246,7.702c5.992-0.079,11.982-3.656,15.25-8.401C151.991,43.998,152.225,41.821,151.909,41.197z
	 M132.916,36.841c3.666-7.393,10.124-12.061,11.758-10.739c1.092,0.857-0.621,4.901-3.109,8.168
	c-2.258,2.958-5.449,6.305-9.27,3.892C132.449,37.775,132.683,37.308,132.916,36.841z M49.5,77.222
	c-1.401-1.945,2.101-12.604,12.217-18.443C56.891,70.217,50.511,78.698,49.5,77.222z M93.906,51.545
	c-2.566,0.776-4.824-2.41-5.99-6.923c2.957-4.201,5.834-8.48,8.092-12.605C96.319,38.242,97.486,50.455,93.906,51.545z">
	<title>ysie</title>
</path>

<path d="M125.902,22.677c1.013-1.088,1.557-3.188,0.545-5.211c-1.012-2.101-3.268-3.034-4.514-1.712
	c-1.244,1.322-1.633,3.655-0.389,5.756C122.713,23.535,124.891,23.768,125.902,22.677z"/>

</svg>
