<svg xmlns="http://www.w3.org/2000/svg" viewBox="0 0 351.28 96.94">
  <defs>
    <style>
      .a {
        fill: #fff;
      }
    </style>
  </defs>
  <title>Untitled-1</title>
  <g>
    <path class="a" d="M59.3,10.43c1.47-.23,2.15,1.47,1.7,3.85-0.91,4.53-2.83,9.62-9.84,21.5-7.69,12.9-15.73,21.61-23.31,21.38C23,57,20.27,52.63,20.61,47.76,17,52.4,12.24,56.93,6.81,56.59c-7-.45-8.26-7.81-5.32-16.18A118.4,118.4,0,0,1,17.21,11.56c0.91-1.24,2-1.13,2.72-.11,2.72,3.73,2.15,8.6-2,15.27a114.43,114.43,0,0,0-9.28,17.2c-2.26,5.54-2.15,9.5.45,9.39,4.53-.11,8.71-7.69,14.82-17.54,7.24-11.54,10.52-19.35,14.26-24.21,1.13-1.47,1.81-1.7,2.83-.68,1.58,2,2.49,7-.23,12.67-2.49,5.09-8.15,13.69-11,19.69-3.06,6.45-2.72,10.3.57,10.41,4,0.11,10.75-7.35,16.86-18C49.12,18.35,56.93,10.88,59.3,10.43Z" transform="translate(0 -0.03)"/>
    <path class="a" d="M79,59.53c-6.34,15.16-14.37,33.38-23.76,37-2.15.79-4.3,0.79-6.45-2.38-2.26-3.39-4.53-7.35-2.26-14,3.39-10.18,13-17,24.21-21.38,1.13-2.6,2.26-5.43,3.51-8.15-3.51,3.62-7.81,6.56-12.33,6.22-8.15-.68-8.37-8.94-5.77-16.41,2.49-7.24,8-18.44,15.39-28.62a1.57,1.57,0,0,1,2.83,0c2.72,3.62,2,8.37-2.15,15a103.31,103.31,0,0,0-8.71,16.52c-2.26,5.54-2,9.5.57,9.73,4.41,0.34,10.07-6.9,15.84-16.74C84.76,28,89.63,17.78,93.59,12c1-1.47,1.81-1.7,2.83-.79,1.58,2,2.49,6.9-.45,12.67C92.57,30.45,85.67,44,80.91,55a60.22,60.22,0,0,0,20-17.42c0.57-.79,1.58-0.91,1.81.23s-0.11,3.62-2,6.56C96.3,51.38,88.38,55.68,79,59.53ZM51,90.3c1.47,2.15,10.75-10.18,17.76-26.81C54.1,72,49,87.48,51,90.3Z" transform="translate(0 -0.03)"/>
    <path class="a" d="M116.9,17.33c0.57-4.41,1.7-6.56,4.07-8.71s5.09-2.72,6.11-1.7,0.57,2.38-.9,5c-0.45.68-.79,1.36-1.24,2.15-0.79,10.41,1.36,19.23,1,27-0.23,4.41-1,9.16-5.09,11.88,7.58-2.83,12.33-9.62,15.16-15.73,0.57-1.24,1.7-.91,2.15,0s0.34,4-1.58,7.47a23.84,23.84,0,0,1-20,12.45c-6.56.23-12.9-1.47-16.74-8.49-2.72-5.09-2.38-12.56,1.47-15.73,1.36-1.13,2.26-.68,2.38,1.13,0.11,0.9.11,1.81,0.23,2.71A224.07,224.07,0,0,0,116.9,17.33Zm-12,25.57c1.7,6.56,5,11.2,8.71,10.07,5.21-1.58,3.51-19.35,3.06-28.4A198.89,198.89,0,0,1,104.9,42.9Z" transform="translate(0 -0.03)"/>
    <path class="a" d="M133.87,40.52c2.83-8.26,10.3-21.61,14.48-27.49,1-1.36,1.81-1.7,2.72-.68,1.7,1.81,2.6,6.67-.11,12.33-2.38,5-7.13,12.67-9.5,18.33-2.72,6.56-2.49,11,1.13,10.75,5.09-.23,11.31-7.69,14.71-15.5,0.57-1,1.36-.91,1.81,0,0.91,1.81.57,4.19-.79,7-3.39,7-10.52,11.77-16.86,11.77C132.85,57,130.7,49.8,133.87,40.52ZM159.1,11c-1.47,1.58-4.64,1.24-6.34-1.7a7,7,0,0,1,.57-8.37c1.81-1.92,5.09-.57,6.56,2.49A6.84,6.84,0,0,1,159.1,11Z" transform="translate(0 -0.03)"/>
    <path class="a" d="M214.08,10.43c1.47-.23,2.15,1.47,1.7,3.85-0.91,4.53-2.83,9.62-9.84,21.5-7.69,12.9-15.73,21.61-23.31,21.38-4.87-.11-7.58-4.53-7.24-9.39-3.62,4.64-8.37,9.16-13.8,8.83-7-.45-8.26-7.81-5.32-16.18A118.4,118.4,0,0,1,172,11.56c0.91-1.24,2-1.13,2.72-.11,2.72,3.73,2.15,8.6-2,15.27a114.34,114.34,0,0,0-9.28,17.2c-2.26,5.54-2.15,9.5.45,9.39,4.53-.11,8.71-7.69,14.82-17.54,7.24-11.54,10.52-19.35,14.26-24.21,1.13-1.47,1.81-1.7,2.83-.68,1.58,2,2.49,7-.23,12.67-2.49,5.09-8.15,13.69-11,19.69-3.06,6.45-2.72,10.3.57,10.41,4,0.11,10.75-7.35,16.86-18C203.9,18.35,211.71,10.88,214.08,10.43Z" transform="translate(0 -0.03)"/>
    <path class="a" d="M233.77,59.53c-6.34,15.16-14.37,33.38-23.76,37-2.15.79-4.3,0.79-6.45-2.38-2.26-3.39-4.53-7.35-2.26-14,3.39-10.18,13-17,24.21-21.38,1.13-2.6,2.26-5.43,3.51-8.15-3.51,3.62-7.81,6.56-12.33,6.22-8.15-.68-8.37-8.94-5.77-16.41,2.49-7.24,8-18.44,15.39-28.62a1.57,1.57,0,0,1,2.83,0c2.72,3.62,2,8.37-2.15,15a103.24,103.24,0,0,0-8.71,16.52c-2.26,5.54-2,9.5.57,9.73,4.41,0.34,10.07-6.9,15.84-16.74C239.54,28,244.41,17.78,248.37,12c1-1.47,1.81-1.7,2.83-.79,1.58,2,2.49,6.9-.45,12.67-3.39,6.56-10.3,20.14-15,31.11a60.24,60.24,0,0,0,20-17.42c0.57-.79,1.58-0.91,1.81.23s-0.11,3.62-2,6.56C251.08,51.38,243.16,55.68,233.77,59.53ZM205.83,90.3c1.47,2.15,10.75-10.18,17.76-26.81C208.88,72,203.79,87.48,205.83,90.3Z" transform="translate(0 -0.03)"/>
    <path class="a" d="M271.68,17.33c0.57-4.41,1.7-6.56,4.07-8.71s5.09-2.72,6.11-1.7,0.57,2.38-.91,5c-0.45.68-.79,1.36-1.24,2.15-0.79,10.41,1.36,19.23,1,27-0.23,4.41-1,9.16-5.09,11.88,7.58-2.83,12.33-9.62,15.16-15.73,0.57-1.24,1.7-.91,2.15,0s0.34,4-1.58,7.47a23.84,23.84,0,0,1-20,12.45c-6.56.23-12.9-1.47-16.74-8.49-2.72-5.09-2.38-12.56,1.47-15.73,1.36-1.13,2.26-.68,2.38,1.13,0.11,0.9.11,1.81,0.23,2.71A224.07,224.07,0,0,0,271.68,17.33Zm-12,25.57c1.7,6.56,5,11.2,8.71,10.07,5.21-1.58,3.51-19.35,3.06-28.4A198.89,198.89,0,0,1,259.68,42.9Z" transform="translate(0 -0.03)"/>
    <path class="a" d="M288.65,40.52c2.83-8.26,10.3-21.61,14.48-27.49,1-1.36,1.81-1.7,2.72-.68,1.7,1.81,2.6,6.67-.11,12.33-2.38,5-7.13,12.67-9.5,18.33-2.72,6.56-2.49,11,1.13,10.75,5.09-.23,11.31-7.69,14.71-15.5,0.57-1,1.36-.91,1.81,0,0.91,1.81.57,4.19-.79,7-3.39,7-10.52,11.77-16.86,11.77C287.63,57,285.48,49.8,288.65,40.52ZM313.88,11c-1.47,1.58-4.64,1.24-6.34-1.7a7,7,0,0,1,.57-8.37c1.81-1.92,5.09-.57,6.56,2.49A6.84,6.84,0,0,1,313.88,11Z" transform="translate(0 -0.03)"/>
    <path class="a" d="M326.66,53.87c9.39,0.45,17.65-8.6,22.52-16.07a1,1,0,0,1,1.92.11c0.45,0.91.11,4.07-1.92,7C344.43,51.84,335.71,57,327,57.15c-14.37.23-19.35-13.92-12-28.51s18.89-20.48,24.55-17.2a21.06,21.06,0,0,1,6.67,5.88c2,2.72,1.13,9.62-3.62,15.39-5.54,6.79-13.12,9.73-21,3.28C317.95,46.41,320.67,53.53,326.66,53.87Zm9.39-26c3.62-4.75,6.11-10.64,4.53-11.88-2.38-1.92-11.77,4.86-17.09,15.61-0.34.68-.68,1.36-0.91,1.92C328.13,37,332.77,32.15,336.05,27.85Z" transform="translate(0 -0.03)"/>
  </g>
</svg>
