<?xml version="1.0" encoding="utf-8"?>
<!-- Generator: Adobe Illustrator 19.1.0, SVG Export Plug-In . SVG Version: 6.00 Build 0)  -->
<svg version="1.1" id="Layer_1" xmlns="http://www.w3.org/2000/svg" xmlns:xlink="http://www.w3.org/1999/xlink" x="0px" y="0px"
	 viewBox="0 0 1351 480" fill="#aaa">
<path d="M1350.9,195.1c3.1-60.9-53.6-105.9-138.5-110.3c-27-1.4-54.1,1.2-70.4,5.4c-4.3-52.3-49.6-86.7-114.5-90
	c-92.9-4.8-206.8,68.5-291.1,131.2C670.9,100.1,509.8,18.7,401,13.1C272.1,6.5,120.5,72.8,115,180.7c-2.8,54.9,47.8,83.6,68.7,84.6
	c6,0.3,8.3-5.6-0.7-6c-18-0.9-38.7-27-35.9-80c2.9-56.9,23.9-94.9,82.5-124.9c38-19.1,74.4-26.2,119.4-23.9
	c99.9,5.1,290.8,89,365.4,117.9c-39.4,27-80,57-117.5,84.1c-59-21.1-124.8-46.5-187.7-49.7c-69.9-3.6-127.6,27.5-145.1,75.7
	c-43.5,8.8-73.2,40.3-80,75C65,335.3,2.4,365.1,0.1,410.1c-1.6,32,31.2,54.7,89.2,57.7c25,1.3,51.1-1.4,75.4-5.1
	c25.3-4.7,48.6-10.5,67.9-16.5c23.4,12.2,52.1,18.7,88.1,20.5c74.9,3.8,134-16.1,200.7-47.8c101.5,31.3,211.4,55.9,297.3,60.3
	c130.8,6.7,221.8-29.7,248.5-100.4c77.1,0,127.4-23.5,140.8-69.9C1271.8,312.2,1347.3,264,1350.9,195.1L1350.9,195.1z M1323.7,198.7
	c-3.1,60.9-53.6,107.4-113.5,104.3c1.6-32-16.4-70.9-52.3-72.8c-16-0.8-27.5,9.6-28.2,23.6c-1.2,24,20.8,43.1,55.5,50.9
	c-15.7,52.3-68.6,68.6-115.5,66.2c0.4-8,1.8-15.9,2.2-23.9c2.3-44.9-50.6-67.7-71.6-68.8c-7-0.4-9.2,4.5-5.3,4.7
	c19,1,52.4,12.7,49.9,61.6c-0.4,8-0.9,17-2.3,24.9c-100.9-5.2-225.5-53.6-306.1-83.8c44.5-27.8,87-55.6,133.3-80.3
	c17.8,4.9,50.4,12.6,77.4,14c103.9,5.3,188.6-45.4,194.5-121.2c24.3-5.8,45.4-6.7,68.4-5.5C1283.8,96.5,1326.9,135.8,1323.7,198.7
	L1323.7,198.7z M1109.3,121.6c-2.8,53.9-66.8,92.7-143.7,88.7c-28-1.4-42.8-5.2-76.3-15.9c63.9-34.8,147.8-69.5,218.9-88.9
	C1108.9,109.6,1109.5,117.6,1109.3,121.6L1109.3,121.6z M1040.1,377.4c-13.4,65.4-83,95.9-177.9,91C747.4,462.5,661,428,556.4,398.6
	c51.7-31.4,105.3-61.7,154.1-96.2C816.5,343.9,966.2,373.6,1040.1,377.4L1040.1,377.4z M565.8,253.9
	c-52,37.4-104.8,70.7-160.4,101.9c-31.7-6.6-98.2-19.1-143.1-21.4c-23-1.2-43-1.2-54-1.8c1.8-36,24.2-61.8,54.5-67.3
	c-1.3,4.9-1.5,8.9-1.7,13.9c-1.3,25,12.8,42.7,30.8,43.6c23,1.2,37.6-11.1,38.5-29.1c1-20-15.2-34.8-51.2-36.7
	c4.5-29.8,36.1-59.2,92-56.4C425.2,203.6,513.7,236.2,565.8,253.9L565.8,253.9z M223.8,439.6c-35.7,12.2-76.1,19.1-112,17.3
	c-59.9-3.1-83.8-26.3-82.3-55.3c2-38.9,70.4-63.5,153.2-59.2C180.5,387.3,193.8,420,223.8,439.6L223.8,439.6z M367.2,377.9
	c-36,19.2-76.1,38.1-116.9,54.1c-25.2-16.3-44.5-49.4-42.5-88.3C257.7,346.2,325.8,364.7,367.2,377.9L367.2,377.9z M1189.1,283.9
	c-0.3,5-0.4,8-2.8,14.9c-3.9-1.2-49.4-12.6-47.8-44.5c0.5-10,7.9-17.6,18.9-17.1C1178.4,238.3,1190.4,259,1189.1,283.9L1189.1,283.9
	z M1106.6,97.4c-87.4,24.5-167.4,62.5-227,92.5c-38.3-14-87.3-34.5-134.4-55C816,81.5,923.6,14.9,1002.5,19
	C1054.4,21.7,1095,49.8,1106.6,97.4L1106.6,97.4z M322.4,294.5c-0.6,11-9.1,20.6-20.1,20c-14-0.7-26.2-15.4-24.8-44.3l0.4-7
	C306.9,264.6,323.3,276.5,322.4,294.5L322.4,294.5z M509.4,416.2C445.8,446,388,461,333,458.2c-33-1.7-57.7-8-75-20.9
	c40.9-16.9,82.9-35.8,122.1-56.8L509.4,416.2z M858.9,201.9c-43.4,25.8-87.8,52.6-131.3,80.4c-41.3-14.1-83.5-32.3-121.8-46.3
	c38.5-28.1,77-56.1,117.5-84.1C767.3,171.1,823.4,191,858.9,201.9L858.9,201.9z M702.6,300c-51.7,32.4-103.5,64.8-155.1,95.2
	c-38.4-13-95.7-27-129.3-36.7c53.7-32.3,103.4-63.8,157.4-101.1C617,270.5,662.3,285.9,702.6,300z"/>
</svg>
